ffmpeg version 4.2.4-1ubuntu0.1 Copyright (c) 2000-2020 the FFmpeg developers
  built with gcc 9 (Ubuntu 9.3.0-10ubuntu2)
  configuration: --prefix=/usr --extra-version=1ubuntu0.1 --toolchain=hardened --libdir=/usr/lib/x86_64-linux-gnu --incdir=/usr/include/x86_64-linux-gnu --arch=amd64 --enable-gpl --disable-stripping --enable-avresample --disable-filter=resample --enable-avisynth --enable-gnutls --enable-ladspa --enable-libaom --enable-libass --enable-libbluray --enable-libbs2b --enable-libcaca --enable-libcdio --enable-libcodec2 --enable-libflite --enable-libfontconfig --enable-libfreetype --enable-libfribidi --enable-libgme --enable-libgsm --enable-libjack --enable-libmp3lame --enable-libmysofa --enable-libopenjpeg --enable-libopenmpt --enable-libopus --enable-libpulse --enable-librsvg --enable-librubberband --enable-libshine --enable-libsnappy --enable-libsoxr --enable-libspeex --enable-libssh --enable-libtheora --enable-libtwolame --enable-libvidstab --enable-libvorbis --enable-libvpx --enable-libwavpack --enable-libwebp --enable-libx265 --enable-libxml2 --enable-libxvid --enable-libzmq --enable-libzvbi --enable-lv2 --enable-omx --enable-openal --enable-opencl --enable-opengl --enable-sdl2 --enable-libdc1394 --enable-libdrm --enable-libiec61883 --enable-nvenc --enable-chromaprint --enable-frei0r --enable-libx264 --enable-shared
  libavutil      56. 31.100 / 56. 31.100
  libavcodec     58. 54.100 / 58. 54.100
  libavformat    58. 29.100 / 58. 29.100
  libavdevice    58.  8.100 / 58.  8.100
  libavfilter     7. 57.100 /  7. 57.100
  libavresample   4.  0.  0 /  4.  0.  0
  libswscale      5.  5.100 /  5.  5.100
  libswresample   3.  5.100 /  3.  5.100
  libpostproc    55.  5.100 / 55.  5.100
Routing option strict to both codec and muxer layer
[h264 @ 0x55f7165e0e00] Reinit context to 1280x720, pix_fmt: yuv420p
Input #0, mov,mp4,m4a,3gp,3g2,mj2, from '/var/www/html/project/media/video/original/af468aa_45225.mp4':
  Metadata:
    major_brand     : isom
    minor_version   : 512
    compatible_brands: isomiso2avc1mp41
    encoder         : Lavf58.29.100
  Duration: 00:00:27.93, start: 0.000000, bitrate: 1900 kb/s
    Stream #0:0(und): Video: h264 (High), 1 reference frame (avc1 / 0x31637661), yuv420p(left), 1280x720 [SAR 1:1 DAR 16:9], 1767 kb/s, 29.65 fps, 29.97 tbr, 30k tbn, 59.94 tbc (default)
    Metadata:
      handler_name    : VideoHandler
    Stream #0:1(und): Audio: aac (LC) (mp4a / 0x6134706D), 44100 Hz, stereo, fltp, 127 kb/s (default)
    Metadata:
      handler_name    : SoundHandler
Input #1, png_pipe, from '/var/www/html/project/static/images/templates/logo.png':
  Duration: N/A, bitrate: N/A
    Stream #1:0: Video: png, 1 reference frame, rgba(pc), 1920x1080 [SAR 2835:2835 DAR 16:9], 25 tbr, 25 tbn, 25 tbc
[Parsed_scale_0 @ 0x55f71660ac40] w:1280 h:720 flags:'bilinear' interl:0
[Parsed_scale_2 @ 0x55f716609580] w:1280 h:720 flags:'bilinear' interl:0
Stream mapping:
  Stream #0:0 (h264) -> scale (graph 0)
  Stream #1:0 (png) -> scale (graph 0)
  overlay (graph 0) -> Stream #0:0 (libx264)
  Stream #0:1 -> #0:1 (aac (native) -> aac (native))
Press [q] to stop, [?] for help
[h264 @ 0x55f7165f4700] Reinit context to 1280x720, pix_fmt: yuv420p
[graph_1_in_0_1 @ 0x55f716a178c0] tb:1/44100 samplefmt:fltp samplerate:44100 chlayout:0x3
[Parsed_scale_0 @ 0x55f71663d700] w:1280 h:720 flags:'bilinear' interl:0
[Parsed_scale_2 @ 0x55f7166929c0] w:1280 h:720 flags:'bilinear' interl:0
[graph 0 input from stream 0:0 @ 0x55f716fd7f40] w:1280 h:720 pixfmt:yuv420p tb:1/30000 fr:30000/1001 sar:1/1 sws_param:flags=2
[graph 0 input from stream 1:0 @ 0x55f716fd8740] w:1920 h:1080 pixfmt:rgba tb:1/25 fr:25/1 sar:2835/2835 sws_param:flags=2
[Parsed_scale_0 @ 0x55f71663d700] w:1280 h:720 fmt:yuv420p sar:1/1 -> w:1280 h:720 fmt:yuv420p sar:1/1 flags:0x2
[Parsed_setsar_1 @ 0x55f716fd6280] w:1280 h:720 sar:1/1 dar:16/9 -> sar:1/1 dar:16/9
[Parsed_scale_2 @ 0x55f7166929c0] w:1920 h:1080 fmt:rgba sar:2835/2835 -> w:1280 h:720 fmt:yuva420p sar:1/1 flags:0x2
[Parsed_setsar_3 @ 0x55f716fd7180] w:1280 h:720 sar:1/1 dar:16/9 -> sar:1/1 dar:16/9
[Parsed_overlay_4 @ 0x55f716fd76c0] main w:1280 h:720 fmt:yuv420p overlay w:1280 h:720 fmt:yuva420p
[Parsed_overlay_4 @ 0x55f716fd76c0] [framesync @ 0x55f716fd77e8] Selected 1/30000 time base
[Parsed_overlay_4 @ 0x55f716fd76c0] [framesync @ 0x55f716fd77e8] Sync level 2
[libx264 @ 0x55f716642180] using SAR=1/1
[libx264 @ 0x55f716642180] using cpu capabilities: MMX2 SSE2Fast SSSE3 SSE4.2 AVX FMA3 BMI2 AVX2
[libx264 @ 0x55f716642180] profile High, level 3.1
[libx264 @ 0x55f716642180] 264 - core 155 r2917 0a84d98 - H.264/MPEG-4 AVC codec - Copyleft 2003-2018 - http://www.videolan.org/x264.html - options: cabac=1 ref=1 deblock=1:0:0 analyse=0x3:0x113 me=hex subme=2 psy=1 psy_rd=1.00:0.00 mixed_ref=0 me_range=16 chroma_me=1 trellis=0 8x8dct=1 cqm=0 deadzone=21,11 fast_pskip=1 chroma_qp_offset=0 threads=22 lookahead_threads=5 sliced_threads=0 nr=0 decimate=1 interlaced=0 bluray_compat=0 constrained_intra=0 bframes=3 b_pyramid=2 b_adapt=1 b_bias=0 direct=1 weightb=1 open_gop=0 weightp=1 keyint=250 keyint_min=25 scenecut=40 intra_refresh=0 rc_lookahead=10 rc=crf mbtree=1 crf=18.0 qcomp=0.60 qpmin=0 qpmax=69 qpstep=4 ip_ratio=1.40 aq=1:1.00
Output #0, mp4, to '/var/www/html/project/media/video/watermarks/af468aa_45225.mp4':
  Metadata:
    major_brand     : isom
    minor_version   : 512
    compatible_brands: isomiso2avc1mp41
    encoder         : Lavf58.29.100
    Stream #0:0: Video: h264 (libx264), 1 reference frame (avc1 / 0x31637661), yuv420p, 1280x720 [SAR 1:1 DAR 16:9], q=-1--1, 29.97 fps, 30k tbn, 29.97 tbc (default)
    Metadata:
      encoder         : Lavc58.54.100 libx264
    Side data:
      cpb: bitrate max/min/avg: 0/0/0 buffer size: 0 vbv_delay: -1
    Stream #0:1(und): Audio: aac (LC) (mp4a / 0x6134706D), 44100 Hz, stereo, fltp, delay 1024, 128 kb/s (default)
    Metadata:
      handler_name    : SoundHandler
      encoder         : Lavc58.54.100 aac
[Parsed_overlay_4 @ 0x55f716fd76c0] [framesync @ 0x55f716fd77e8] Sync level 0
No more output streams to write to, finishing.
frame=  826 fps=216 q=-1.0 Lsize=    6597kB time=00:00:27.91 bitrate=1936.3kbits/s speed=7.29x    
[AVIOContext @ 0x55f7165df0c0] Statistics: 0 seeks, 8 writeouts
video:6133kB audio:434kB subtitle:0kB other streams:0kB global headers:0kB muxing overhead: 0.464466%
Input file #0 (/var/www/html/project/media/video/original/af468aa_45225.mp4):
  Input stream #0:0 (video): 826 packets read (6157028 bytes); 826 frames decoded; 
  Input stream #0:1 (audio): 1203 packets read (446404 bytes); 1202 frames decoded (1230848 samples); 
  Total: 2029 packets (6603432 bytes) demuxed
Input file #1 (/var/www/html/project/static/images/templates/logo.png):
  Input stream #1:0 (video): 1 packets read (111578 bytes); 1 frames decoded; 
  Total: 1 packets (111578 bytes) demuxed
Output file #0 (/var/www/html/project/media/video/watermarks/af468aa_45225.mp4):
  Output stream #0:0 (video): 826 frames encoded; 826 packets muxed (6279684 bytes); 
  Output stream #0:1 (audio): 1202 frames encoded (1230848 samples); 1203 packets muxed (444383 bytes); 
  Total: 2029 packets (6724067 bytes) muxed
[AVIOContext @ 0x55f7165f77c0] Statistics: 2 seeks, 29 writeouts
[libx264 @ 0x55f716642180] frame I:4     Avg QP:10.93  size: 26108
[libx264 @ 0x55f716642180] frame P:330   Avg QP:13.28  size:  9987
[libx264 @ 0x55f716642180] frame B:492   Avg QP:14.16  size:  5851
[libx264 @ 0x55f716642180] consecutive B-frames:  4.4% 45.5%  9.4% 40.7%
[libx264 @ 0x55f716642180] mb I  I16..4: 60.9% 29.2% 10.0%
[libx264 @ 0x55f716642180] mb P  I16..4: 38.2% 24.1%  0.5%  P16..4: 15.6%  5.6%  1.4%  0.0%  0.0%    skip:14.5%
[libx264 @ 0x55f716642180] mb B  I16..4:  9.3%  3.2%  0.0%  B16..8: 28.1%  8.8%  0.4%  direct:12.3%  skip:38.0%  L0:50.9% L1:46.3% BI: 2.8%
[libx264 @ 0x55f716642180] 8x8 transform intra:35.3% inter:12.7%
[libx264 @ 0x55f716642180] coded y,uvDC,uvAC intra: 14.4% 33.1% 6.0% inter: 3.7% 26.6% 0.2%
[libx264 @ 0x55f716642180] i16 v,h,dc,p: 60% 27%  9%  4%
[libx264 @ 0x55f716642180] i8 v,h,dc,ddl,ddr,vr,hd,vl,hu: 27% 29% 36%  1%  2%  1%  2%  1%  1%
[libx264 @ 0x55f716642180] i4 v,h,dc,ddl,ddr,vr,hd,vl,hu: 33% 27% 23%  3%  4%  3%  4%  2%  2%
[libx264 @ 0x55f716642180] i8c dc,h,v,p: 65% 18% 15%  2%
[libx264 @ 0x55f716642180] Weighted P-Frames: Y:7.3% UV:0.0%
[libx264 @ 0x55f716642180] kb/s:1798.63
[aac @ 0x55f71660a180] Qavg: 2134.654
[AVIOContext @ 0x55f7165e8040] Statistics: 6683050 bytes read, 2 seeks
[AVIOContext @ 0x55f7165e7100] Statistics: 111578 bytes read, 0 seeks
